<?xml version="1.0" standalone="no"?>
<!DOCTYPE svg PUBLIC "-//W3C//DTD SVG 20010904//EN"
 "http://www.w3.org/TR/2001/REC-SVG-20010904/DTD/svg10.dtd">
<svg version="1.0" xmlns="http://www.w3.org/2000/svg"
 width="1920.000000pt" height="1920.000000pt" viewBox="0 0 1920.000000 1920.000000"
 preserveAspectRatio="xMidYMid meet">
<metadata>
Created by potrace 1.14, written by Peter Selinger 2001-2017
</metadata>
<g transform="translate(0.000000,1920.000000) scale(0.100000,-0.100000)"
fill="#000000" stroke="none">
<path d="M530 14665 l0 -1335 1600 0 1600 0 0 -3730 0 -3730 -1600 0 -1600 0
0 -1335 0 -1335 9070 0 9070 0 0 1335 0 1335 -1600 0 -1600 0 0 3730 0 3730
1600 0 1600 0 0 1335 0 1335 -9070 0 -9070 0 0 -1335z m2138 3 l2 -798 -535 0
-535 0 0 800 0 800 533 -2 532 -3 3 -797z m2132 2 l0 -800 -535 0 -535 0 0
793 c0 437 3 797 7 800 3 4 244 7 535 7 l528 0 0 -800z m2130 0 l0 -800 -530
0 -530 0 0 800 0 800 530 0 530 0 0 -800z m2138 -2 l2 -798 -535 0 -535 0 0
800 0 800 533 -2 532 -3 3 -797z m2132 2 l0 -800 -535 0 -535 0 0 793 c0 437
3 797 7 800 3 4 244 7 535 7 l528 0 0 -800z m2130 0 l0 -800 -530 0 -530 0 0
800 0 800 530 0 530 0 0 -800z m2138 -2 l2 -798 -535 0 -535 0 0 800 0 800
533 -2 532 -3 3 -797z m2132 2 l0 -800 -535 0 -535 0 0 793 c0 437 3 797 7
800 3 4 244 7 535 7 l528 0 0 -800z m-3200 -5070 l0 -3730 -4800 0 -4800 0 0
3730 0 3730 4800 0 4800 0 0 -3730z m-11732 -5067 l-3 -798 -532 -3 -533 -2 0
800 0 800 535 0 535 0 -2 -797z m2132 -3 l0 -800 -532 2 -533 3 -3 798 -2 797
535 0 535 0 0 -800z m2130 0 l0 -800 -530 0 -530 0 0 800 0 800 530 0 530 0 0
-800z m2138 3 l-3 -798 -532 -3 -533 -2 0 800 0 800 535 0 535 0 -2 -797z
m2132 -3 l0 -800 -532 2 -533 3 -3 798 -2 797 535 0 535 0 0 -800z m2130 0 l0
-800 -530 0 -530 0 0 800 0 800 530 0 530 0 0 -800z m2138 3 l-3 -798 -532 -3
-533 -2 0 800 0 800 535 0 535 0 -2 -797z m2132 -3 l0 -800 -532 2 -533 3 -3
798 -2 797 535 0 535 0 0 -800z"/>
</g>
</svg>
