<?xml version="1.0" standalone="no"?>
<!DOCTYPE svg PUBLIC "-//W3C//DTD SVG 20010904//EN"
 "http://www.w3.org/TR/2001/REC-SVG-20010904/DTD/svg10.dtd">
<svg version="1.0" xmlns="http://www.w3.org/2000/svg"
 width="534.000000pt" height="534.000000pt" viewBox="0 0 534.000000 534.000000"
 preserveAspectRatio="xMidYMid meet">
<metadata>
Created by potrace 1.14, written by Peter Selinger 2001-2017
</metadata>
<g transform="translate(0.000000,534.000000) scale(0.100000,-0.100000)"
fill="#000000" stroke="none">
<path d="M1290 4964 c-518 -64 -907 -375 -1054 -843 -46 -147 -60 -249 -60
-451 0 -371 77 -671 261 -1005 71 -130 239 -382 345 -516 290 -371 740 -829
1211 -1233 256 -219 667 -546 687 -546 4 0 59 39 121 86 615 467 1248 1058
1650 1540 352 422 586 830 668 1164 137 561 66 1040 -205 1378 -298 372 -893
530 -1380 367 -333 -112 -629 -393 -814 -772 l-43 -88 -17 50 c-60 175 -180
366 -320 506 -178 180 -386 290 -645 344 -77 16 -331 28 -405 19z m591 -980
c258 -77 460 -338 552 -714 38 -153 51 -291 44 -465 -7 -165 -29 -289 -76
-435 -130 -402 -427 -659 -707 -611 -513 90 -807 954 -562 1650 106 299 300
519 508 575 73 20 174 20 241 0z m1719 -18 c234 -95 423 -368 506 -731 36
-159 45 -430 20 -603 -51 -347 -214 -649 -427 -791 -121 -81 -284 -108 -409
-67 -215 71 -402 292 -504 596 -57 171 -70 267 -70 505 -1 173 3 239 17 310
85 419 302 722 575 801 75 22 213 12 292 -20z"/>
<path d="M1387 3359 c-137 -22 -263 -170 -302 -355 -52 -245 41 -502 217 -599
46 -26 63 -30 133 -30 95 0 150 22 219 89 105 103 167 293 150 462 -9 85 -12
87 -63 62 -121 -60 -235 -16 -257 99 -9 45 20 134 61 188 20 25 33 50 31 54
-5 8 -65 26 -116 34 -14 2 -46 1 -73 -4z"/>
<path d="M3053 3359 c-136 -25 -253 -155 -300 -332 -22 -83 -21 -242 1 -327
39 -147 136 -270 243 -310 253 -96 493 171 470 523 -3 49 -8 91 -10 93 -2 3
-28 -7 -58 -21 -135 -62 -249 -3 -249 130 0 56 31 131 74 182 l26 31 -42 15
c-57 21 -104 25 -155 16z"/>
</g>
</svg>
